# xmcd
#
# Track frame offsets: 
#        150
#        23188
#        36284
#        59648
#        77020
#        101086
#        131271
#        154062
#        170814
#        196961
#        221462
#        235837
#        250855
#
# Disc length: 3702 seconds
#
# Revision: 0
# Processed by: cddbd v1.5.2PL0 Copyright (c) Steve Scherf et al.
# Submitted via: ExactAudioCopy v0.99pb5
#
DISCID=b00e740d
DTITLE=Tre - I'm Through With The Blues
DYEAR=2011
DGENRE=Blues
TTITLE0=I'm Through With The Blues
TTITLE1=I Got A Big Boss Lady
TTITLE2=You're My Everything
TTITLE3=Born To Love The Blues
TTITLE4=I Ain't Going To Treat You No More
TTITLE5=I'm A Blues Man Baby
TTITLE6=Do You Want To Get Bluesy
TTITLE7=From The Country To The City
TTITLE8=Play A Little Lottery
TTITLE9=Church Bells
TTITLE10=Dance Rodeo Dance
TTITLE11=Cheating In The Bar Room
TTITLE12=I Shot My Baby
EXTD=
EXTT0=
EXTT1=
EXTT2=
EXTT3=
EXTT4=
EXTT5=
EXTT6=
EXTT7=
EXTT8=
EXTT9=
EXTT10=
EXTT11=
EXTT12=
PLAYORDER=
